<svg>
    <symbol id='brunel_circle' viewBox='-12.5 -12.5 25 25'>
        <circle cx='0' cy='0' r='12'/>
    </symbol>

    <symbol id='brunel_square' viewBox='-12.5 -12.5 25 25'>
        <rect x="-12" y="-12" width="24" height="24"/>
    </symbol>

    <symbol id='brunel_triangle' viewBox='-12.5 -12.5 25 25'>
        <path d="M 0,-11 12,11 -12,11 Z"/>
    </symbol>

    <symbol id='brunel_diamond' viewBox='-12.5 -12.5 25 25'>
        <path d="M 0,-12 10,0 0,12 -10,0 Z"/>
    </symbol>

    <symbol id='brunel_cross' viewBox='-12.5 -12.5 25 25'>
        <path d="M -12,-4 -4,-4 -4,-12 4,-12 4,-4 12,-4 12,4 4,4 4,12 -4,12 -4,4 -12,4 Z"/>
    </symbol>

    <symbol id='brunel_star' viewBox='-12.75 -12.75 25.5 25.5'>
        <path d="M 0,-12 -2.7,-3.7 -11.4,-3.7 -4.4,1.4 -7.1,9.7 0,4.6 7.1,9.7 4.4,1.4 11.4,-3.7 2.7,-3.7 Z"/>
    </symbol>

    <symbol id='brunel_pentagon' viewBox='-12.75 -12.75 25.5 25.5'>
        <path d="M 0,-12 -11.4,-3.7 -7.1,9.7 7.1,9.7 11.4,-3.7 Z"/>
    </symbol>

    <symbol id='brunel_triangleDown' viewBox='-12.5 -12.5 25 25'>
        <path d="M -12,-11 0,11 12,-11  Z"/>
    </symbol>

    <symbol id='brunel_hexagon' viewBox='-12.75 -12.75 25.5 25.5'>
        <path d="M 0,-12 -10.4,-6 -10.4,6 -0,12 10.4,6 10,-6 Z"/>
    </symbol>

    <symbol id='brunel_person' viewBox='-28 -28 56 56'>
        <circle cx="0" cy="-22.8" r="4.2"/>
        <path d="M4.4,-16.6c2.96,0,5.39,2.4,5.39,5.37v12.99c0,1.01,-0.8,1.83,-1.81,1.83c-1.01,0,-1.83,-0.82,-1.83,-1.83v-11.71h-0.95v32.59c0,1.36,-1.11,2.46,-2.47,2.46c-1.36,0,-2.46,-1.1,-2.46,-2.46v-18.92h-1v18.92c0,1.36,-1.1,2.46,-2.46,2.46c-1.36,0,-2.46,-1.1,-2.46,-2.46c0,-2.01,-0.02,-32.59,-0.02,-32.59h-0.93v11.71c0,1.01,-0.82,1.83,-1.83,1.83c-1.01,0,-1.81,-0.82,-1.81,-1.83v-12.99c0,-2.96,2.43,-5.37,5.39,-5.37H3.84Z"/>
    </symbol>
</svg>
