<svg>
    <symbol id="plus" viewBox="0 0 24 24">
        <path d="M19,13H13V19H11V13H5V11H11V5H13V11H19V13Z"/>
    </symbol>

    <symbol id="alert" viewBox="0 0 24 24">
        <path d="M13,14H11V10H13M13,18H11V16H13M1,21H23L12,2L1,21Z"/>
    </symbol>

    <symbol id="arrowDown" viewBox="0 0 24 24">
        <path d="M15,20H9V12H4.16L12,4.16L19.84,12H15V20Z"/>
    </symbol>

    <symbol id="arrowUp" viewBox="0 0 24 24">
        <path d="M15,20H9V12H4.16L12,4.16L19.84,12H15V20Z"/>
    </symbol>

    <symbol id="chart" viewBox="0 0 24 24">
        <path d="M17.45,15.18L22,7.31V19L22,21H2V3H4V15.54L9.5,6L16,9.78L20.24,2.45L21.97,3.45L16.74,12.5L10.23,8.75L4.31,19H6.57L10.96,11.44L17.45,15.18Z"/>
    </symbol>

    <symbol id="circleOutline" viewBox="0 0 24 24">
        <path d="M12,20A8,8 0 0,1 4,12A8,8 0 0,1 12,4A8,8 0 0,1 20,12A8,8 0 0,1 12,20M12,2A10,10 0 0,0 2,12A10,10 0 0,0 12,22A10,10 0 0,0 22,12A10,10 0 0,0 12,2Z"/>
    </symbol>

    <symbol id="database" viewBox="0 0 24 24">
        <path d="M12,3C7.58,3 4,4.79 4,7C4,9.21 7.58,11 12,11C16.42,11 20,9.21 20,7C20,4.79 16.42,3 12,3M4,9V12C4,14.21 7.58,16 12,16C16.42,16 20,14.21 20,12V9C20,11.21 16.42,13 12,13C7.58,13 4,11.21 4,9M4,14V17C4,19.21 7.58,21 12,21C16.42,21 20,19.21 20,17V14C20,16.21 16.42,18 12,18C7.58,18 4,16.21 4,14Z"/>
    </symbol>

    <symbol id="person" viewBox="0 0 24 24">
        <path d="M12,2A2,2 0 0,1 14,4A2,2 0 0,1 12,6A2,2 0 0,1 10,4A2,2 0 0,1 12,2M10.5,7H13.5A2,2 0 0,1 15.5,9V14.5H14V22H10V14.5H8.5V9A2,2 0 0,1 10.5,7Z"/>
    </symbol>

    <symbol id="question" viewBox="0 0 24 24">
        <path d="M10,19H13V22H10V19M12,2C17.35,2.22 19.68,7.62 16.5,11.67C15.67,12.67 14.33,13.33 13.67,14.17C13,15 13,16 13,17H10C10,15.33 10,13.92 10.67,12.92C11.33,11.92 12.67,11.33 13.5,10.67C15.92,8.43 15.32,5.26 12,5A3,3 0 0,0 9,8H6A6,6 0 0,1 12,2Z"/>
    </symbol>

    <symbol id="happy" viewBox="0 0 24 24">
        <path d="M20,12A8,8 0 0,0 12,4A8,8 0 0,0 4,12A8,8 0 0,0 12,20A8,8 0 0,0 20,12M22,12A10,10 0 0,1 12,22A10,10 0 0,1 2,12A10,10 0 0,1 12,2A10,10 0 0,1 22,12M10,9.5C10,10.3 9.3,11 8.5,11C7.7,11 7,10.3 7,9.5C7,8.7 7.7,8 8.5,8C9.3,8 10,8.7 10,9.5M17,9.5C17,10.3 16.3,11 15.5,11C14.7,11 14,10.3 14,9.5C14,8.7 14.7,8 15.5,8C16.3,8 17,8.7 17,9.5M12,17.23C10.25,17.23 8.71,16.5 7.81,15.42L9.23,14C9.68,14.72 10.75,15.23 12,15.23C13.25,15.23 14.32,14.72 14.77,14L16.19,15.42C15.29,16.5 13.75,17.23 12,17.23Z"/>
    </symbol>

    <symbol id="neutral" viewBox="0 0 24 24">
        <path d="M8.5,11A1.5,1.5 0 0,1 7,9.5A1.5,1.5 0 0,1 8.5,8A1.5,1.5 0 0,1 10,9.5A1.5,1.5 0 0,1 8.5,11M15.5,11A1.5,1.5 0 0,1 14,9.5A1.5,1.5 0 0,1 15.5,8A1.5,1.5 0 0,1 17,9.5A1.5,1.5 0 0,1 15.5,11M12,20A8,8 0 0,0 20,12A8,8 0 0,0 12,4A8,8 0 0,0 4,12A8,8 0 0,0 12,20M12,2A10,10 0 0,1 22,12A10,10 0 0,1 12,22C6.47,22 2,17.5 2,12A10,10 0 0,1 12,2M9,14H15A1,1 0 0,1 16,15A1,1 0 0,1 15,16H9A1,1 0 0,1 8,15A1,1 0 0,1 9,14Z"/>
    </symbol>

    <symbol id="sad" viewBox="0 0 24 24">
        <path d="M20,12A8,8 0 0,0 12,4A8,8 0 0,0 4,12A8,8 0 0,0 12,20A8,8 0 0,0 20,12M22,12A10,10 0 0,1 12,22A10,10 0 0,1 2,12A10,10 0 0,1 12,2A10,10 0 0,1 22,12M15.5,8C16.3,8 17,8.7 17,9.5C17,10.3 16.3,11 15.5,11C14.7,11 14,10.3 14,9.5C14,8.7 14.7,8 15.5,8M10,9.5C10,10.3 9.3,11 8.5,11C7.7,11 7,10.3 7,9.5C7,8.7 7.7,8 8.5,8C9.3,8 10,8.7 10,9.5M12,14C13.75,14 15.29,14.72 16.19,15.81L14.77,17.23C14.32,16.5 13.25,16 12,16C10.75,16 9.68,16.5 9.23,17.23L7.81,15.81C8.71,14.72 10.25,14 12,14Z"/>
    </symbol>


    <symbol id="thumbUp" viewBox="0 0 24 24">
        <path d="M23,10C23,8.89 22.1,8 21,8H14.68L15.64,3.43C15.66,3.33 15.67,3.22 15.67,3.11C15.67,2.7 15.5,2.32 15.23,2.05L14.17,1L7.59,7.58C7.22,7.95 7,8.45 7,9V19A2,2 0 0,0 9,21H18C18.83,21 19.54,20.5 19.84,19.78L22.86,12.73C22.95,12.5 23,12.26 23,12V10.08L23,10M1,21H5V9H1V21Z"/>
    </symbol>

    <symbol id="thumbDown" viewBox="0 0 24 24">
        <path d="M19,15H23V3H19M15,3H6C5.17,3 4.46,3.5 4.16,4.22L1.14,11.27C1.05,11.5 1,11.74 1,12V13.91L1,14A2,2 0 0,0 3,16H9.31L8.36,20.57C8.34,20.67 8.33,20.77 8.33,20.88C8.33,21.3 8.5,21.67 8.77,21.94L9.83,23L16.41,16.41C16.78,16.05 17,15.55 17,15V5C17,3.89 16.1,3 15,3Z"/>
    </symbol>

    <symbol id="lightbulb" viewBox="0 0 24 24">
        <path d="M12,2A7,7 0 0,0 5,9C5,11.38 6.19,13.47 8,14.74V17A1,1 0 0,0 9,18H15A1,1 0 0,0 16,17V14.74C17.81,13.47 19,11.38 19,9A7,7 0 0,0 12,2M9,21A1,1 0 0,0 10,22H14A1,1 0 0,0 15,21V20H9V21Z"/>
    </symbol>

     <symbol id="flag" viewBox="0 0 24 24">
        <path d="M6,3A1,1 0 0,1 7,4V4.88C8.06,4.44 9.5,4 11,4C14,4 14,6 16,6C19,6 20,4 20,4V12C20,12 19,14 16,14C13,14 13,12 11,12C8,12 7,14 7,14V21H5V4A1,1 0 0,1 6,3Z"/>
    </symbol>

    <symbol id="female" viewBox="0 0 24 24">
        <path d="M12,4A6,6 0 0,1 18,10C18,12.97 15.84,15.44 13,15.92V18H15V20H13V22H11V20H9V18H11V15.92C8.16,15.44 6,12.97 6,10A6,6 0 0,1 12,4M12,6A4,4 0 0,0 8,10A4,4 0 0,0 12,14A4,4 0 0,0 16,10A4,4 0 0,0 12,6Z"/>
    </symbol>

    <symbol id="male" viewBox="0 0 24 24">
        <path d="M9,9C10.29,9 11.5,9.41 12.47,10.11L17.58,5H13V3H21V11H19V6.41L13.89,11.5C14.59,12.5 15,13.7 15,15A6,6 0 0,1 9,21A6,6 0 0,1 3,15A6,6 0 0,1 9,9M9,11A4,4 0 0,0 5,15A4,4 0 0,0 9,19A4,4 0 0,0 13,15A4,4 0 0,0 9,11Z"/>
    </symbol>

    <symbol id="heart" viewBox="0 0 24 24">
        <path d="M12,21.35L10.55,20.03C5.4,15.36 2,12.27 2,8.5C2,5.41 4.42,3 7.5,3C9.24,3 10.91,3.81 12,5.08C13.09,3.81 14.76,3 16.5,3C19.58,3 22,5.41 22,8.5C22,12.27 18.6,15.36 13.45,20.03L12,21.35Z"/>
    </symbol>

    <symbol id="pencil" viewBox="0 0 24 24">
        <path d="M16.84,2.73C16.45,2.73 16.07,2.88 15.77,3.17L13.65,5.29L18.95,10.6L21.07,8.5C21.67,7.89 21.67,6.94 21.07,6.36L17.9,3.17C17.6,2.88 17.22,2.73 16.84,2.73M12.94,6L4.84,14.11L7.4,14.39L7.58,16.68L9.86,16.85L10.15,19.41L18.25,11.3M4.25,15.04L2.5,21.73L9.2,19.94L8.96,17.78L6.65,17.61L6.47,15.29"/>
    </symbol>

    <symbol id="info" viewBox="0 0 24 24">
        <path d="M13,9H11V7H13M13,17H11V11H13M12,2A10,10 0 0,0 2,12A10,10 0 0,0 12,22A10,10 0 0,0 22,12A10,10 0 0,0 12,2Z"/>
    </symbol>
</svg>
